<svg aria-hidden="true" style="position: absolute; width: 0; height: 0; overflow: hidden;" version="1.1" xmlns="http://www.w3.org/2000/svg" xmlns:xlink="http://www.w3.org/1999/xlink">
<defs>
<symbol id="icon-cross" viewBox="0 0 32 32">
<path d="M8.533 25.333l-1.867-1.867 7.467-7.467-7.467-7.467 1.867-1.867 7.467 7.467 7.467-7.467 1.867 1.867-7.467 7.467 7.467 7.467-1.867 1.867-7.467-7.467-7.467 7.467z"></path>
</symbol>
<symbol id="icon-burger" viewBox="0 0 32 32">
<path d="M4 24v-2.667h24v2.667h-24zM4 17.333v-2.667h24v2.667h-24zM4 10.667v-2.667h24v2.667h-24z"></path>
</symbol>
<symbol id="icon-check-circle-outline-rounded" viewBox="0 0 31 32">
<path fill="#2b0a3d" style="fill: var(--color1, #2b0a3d)" d="M13.789 18.054l-2.797-2.797c-0.239-0.238-0.542-0.358-0.911-0.358s-0.672 0.119-0.911 0.358c-0.238 0.239-0.358 0.542-0.358 0.911s0.119 0.672 0.358 0.911l3.707 3.707c0.26 0.26 0.564 0.39 0.911 0.39s0.65-0.13 0.911-0.39l7.35-7.35c0.239-0.239 0.358-0.542 0.358-0.911s-0.119-0.672-0.358-0.911c-0.238-0.238-0.542-0.358-0.911-0.358s-0.672 0.119-0.911 0.358l-6.439 6.439zM15.61 28.721c-1.799 0-3.491-0.342-5.073-1.025s-2.959-1.61-4.13-2.78-2.097-2.547-2.78-4.13c-0.683-1.583-1.024-3.275-1.025-5.073s0.341-3.49 1.025-5.073c0.684-1.583 1.611-2.96 2.78-4.13s2.546-2.096 4.13-2.78c1.584-0.683 3.275-1.025 5.073-1.025s3.489 0.342 5.073 1.025 2.961 1.61 4.13 2.78c1.169 1.17 2.096 2.547 2.781 4.13s1.026 3.275 1.024 5.073c-0.003 1.799-0.344 3.49-1.025 5.073s-1.607 2.96-2.78 4.13-2.549 2.097-4.13 2.781c-1.581 0.684-3.272 1.025-5.073 1.024zM15.61 26.119c2.905 0 5.366-1.008 7.382-3.024s3.024-4.477 3.024-7.382c0-2.905-1.008-5.366-3.024-7.382s-4.477-3.024-7.382-3.024-5.366 1.008-7.382 3.024c-2.016 2.016-3.024 4.477-3.024 7.382s1.008 5.366 3.024 7.382c2.016 2.016 4.477 3.024 7.382 3.024z"></path>
</symbol>
<symbol id="icon-heart-outline" viewBox="0 0 31 32">
<path fill="none" stroke="#2b0a3d" style="stroke: var(--color1, #2b0a3d)" stroke-linejoin="round" stroke-linecap="round" stroke-miterlimit="4" stroke-width="3.122" d="M15.623 7.909c-7.168-6.505-14.322 2.6-8.101 9.106l8.103 9.104 8.104-9.106c6.191-6.504-0.964-15.611-8.105-9.104z"></path>
</symbol>
<symbol id="icon-star-outline" viewBox="0 0 31 32">
<path fill="none" stroke="#2b0a3d" style="stroke: var(--color1, #2b0a3d)" stroke-linejoin="miter" stroke-linecap="butt" stroke-miterlimit="4" stroke-width="3.122" d="M14.417 6.743c0.455-1.041 1.932-1.041 2.386 0l2.279 5.232c0.094 0.216 0.246 0.403 0.439 0.54s0.419 0.219 0.654 0.237l5.806 0.445c1.171 0.090 1.633 1.561 0.723 2.304l-4.332 3.542c-0.191 0.156-0.333 0.363-0.411 0.597s-0.087 0.485-0.027 0.724l1.34 5.358c0.278 1.116-0.924 2.019-1.917 1.439l-5.090-2.967c-0.199-0.116-0.425-0.177-0.656-0.177s-0.457 0.061-0.656 0.177l-5.090 2.967c-0.994 0.58-2.196-0.323-1.917-1.439l1.34-5.358c0.059-0.239 0.049-0.49-0.029-0.724s-0.221-0.441-0.412-0.596l-4.332-3.542c-0.908-0.743-0.445-2.214 0.725-2.304l5.804-0.445c0.235-0.018 0.462-0.1 0.654-0.237s0.344-0.323 0.439-0.54l2.282-5.233z"></path>
</symbol>
<symbol id="icon-award-solid" viewBox="0 0 31 32">
<path fill="#2b0a3d" style="fill: var(--color1, #2b0a3d)" d="M14.309 11.81c0-0.345 0.137-0.676 0.381-0.92s0.575-0.381 0.92-0.381c0.345 0 0.676 0.137 0.92 0.381s0.381 0.575 0.381 0.92c0 0.345-0.137 0.676-0.381 0.92s-0.575 0.381-0.92 0.381c-0.345 0-0.676-0.137-0.92-0.381s-0.381-0.575-0.381-0.92z"></path>
<path fill="#2b0a3d" style="fill: var(--color1, #2b0a3d)" d="M12.873 4.072c0.326-0.414 0.742-0.748 1.216-0.978s0.994-0.349 1.521-0.349c0.527 0 1.047 0.119 1.521 0.349s0.89 0.564 1.216 0.978c0.191 0.242 0.494 0.367 0.8 0.332 0.523-0.062 1.053-0.004 1.551 0.168s0.95 0.456 1.322 0.828c0.373 0.372 0.656 0.824 0.829 1.322s0.23 1.028 0.169 1.551c-0.018 0.15 0.003 0.303 0.061 0.443s0.151 0.263 0.27 0.357c0.414 0.326 0.748 0.742 0.978 1.216s0.349 0.994 0.349 1.521c0 0.527-0.119 1.047-0.349 1.521s-0.564 0.89-0.978 1.216c-0.119 0.094-0.212 0.217-0.27 0.357s-0.079 0.293-0.061 0.443c0.062 0.523 0.004 1.054-0.168 1.552s-0.456 0.95-0.829 1.323-0.825 0.656-1.323 0.829c-0.498 0.173-1.028 0.23-1.552 0.168-0.15-0.018-0.303 0.003-0.443 0.061s-0.263 0.151-0.357 0.27c-0.327 0.413-0.742 0.747-1.216 0.977s-0.994 0.349-1.52 0.349c-0.527 0-1.046-0.119-1.52-0.349s-0.89-0.563-1.216-0.977c-0.094-0.119-0.216-0.212-0.356-0.27s-0.292-0.079-0.443-0.062c-0.523 0.062-1.053 0.004-1.551-0.168s-0.95-0.456-1.322-0.828c-0.373-0.372-0.656-0.825-0.829-1.322s-0.23-1.028-0.169-1.551c0.018-0.151-0.003-0.303-0.061-0.443s-0.151-0.263-0.27-0.357c-0.414-0.326-0.748-0.742-0.978-1.216s-0.349-0.994-0.349-1.521c0-0.527 0.119-1.047 0.349-1.521s0.564-0.89 0.978-1.216c0.119-0.094 0.212-0.217 0.27-0.357s0.079-0.293 0.061-0.443c-0.062-0.523-0.004-1.054 0.169-1.551s0.456-0.95 0.829-1.322c0.373-0.372 0.825-0.656 1.322-0.828s1.028-0.23 1.551-0.168c0.15 0.018 0.303-0.003 0.443-0.062s0.262-0.151 0.356-0.27zM15.61 7.908c-1.035 0-2.028 0.411-2.759 1.143s-1.143 1.725-1.143 2.759c0 1.035 0.411 2.028 1.143 2.759s1.724 1.143 2.759 1.143c1.035 0 2.028-0.411 2.76-1.143s1.143-1.724 1.143-2.759c0-1.035-0.411-2.028-1.143-2.759s-1.724-1.143-2.759-1.143z"></path>
<path fill="#2b0a3d" style="fill: var(--color1, #2b0a3d)" d="M7.018 19.687l-1.724 5.132c-0.077 0.229-0.088 0.475-0.033 0.711s0.175 0.451 0.346 0.622 0.386 0.291 0.621 0.347c0.235 0.056 0.481 0.045 0.711-0.032l2.537-0.846 1.488 2.221c0.134 0.2 0.322 0.358 0.541 0.458s0.462 0.136 0.701 0.106c0.239-0.030 0.465-0.126 0.653-0.277s0.33-0.351 0.41-0.578l1.457-4.137c-1.226-0.176-2.368-0.724-3.272-1.571-0.849-0.029-1.683-0.235-2.447-0.607s-1.442-0.898-1.99-1.548l0.001-0.001zM16.474 23.417l1.457 4.133c0.080 0.227 0.222 0.428 0.41 0.579s0.414 0.247 0.653 0.278c0.239 0.030 0.482-0.007 0.702-0.107s0.407-0.259 0.541-0.459l1.488-2.221 2.537 0.846c0.229 0.076 0.475 0.087 0.71 0.031s0.45-0.176 0.621-0.347c0.171-0.171 0.29-0.386 0.346-0.621s0.044-0.481-0.033-0.71l-1.717-5.112c-0.548 0.644-1.224 1.167-1.986 1.535s-1.592 0.573-2.437 0.601c-0.908 0.852-2.058 1.401-3.291 1.574h-0.001z"></path>
</symbol>
</defs>
</svg>
